<svg xmlns="http://www.w3.org/2000/svg" width="96" height="96" viewBox="0 0 96 96" fill="none">
  <rect x="8" y="8" width="80" height="80" rx="20" fill="#123F35"/>
  <path d="M24 34L48 22L72 34L48 46L24 34Z" fill="#F8FAFC"/>
  <path d="M35 43V52C35 59 41 64 48 64C55 64 61 59 61 52V43" stroke="#F8FAFC" stroke-width="6" stroke-linecap="round"/>
  <path d="M36 64H60" stroke="#F8FAFC" stroke-width="6" stroke-linecap="round"/>
  <path d="M40 66C40 61 43 57 48 57C53 57 56 61 56 66V70H40V66Z" fill="#16775F"/>
  <circle cx="48" cy="73" r="4" fill="#D97706"/>
  <path d="M66 37V51" stroke="#D97706" stroke-width="5" stroke-linecap="round"/>
  <path d="M39 53L46 60L59 47" stroke="#D1FAE5" stroke-width="5" stroke-linecap="round" stroke-linejoin="round"/>
</svg>
